<?xml version="1.0" encoding="utf-8"?>
<!-- Svg Vector Icons : http://www.onlinewebfonts.com/icon -->
<!DOCTYPE svg PUBLIC "-//W3C//DTD SVG 1.1//EN" "http://www.w3.org/Graphics/SVG/1.1/DTD/svg11.dtd">
<svg version="1.1" xmlns="http://www.w3.org/2000/svg" xmlns:xlink="http://www.w3.org/1999/xlink" x="0px" y="0px" viewBox="0 0 256 256" enable-background="new 0 0 256 256" xml:space="preserve">
<metadata> Svg Vector Icons : http://www.onlinewebfonts.com/icon </metadata>
<g><g><g><path fill="#000000" d="M139.5,10.6c-0.9,0.2-2.7,1.5-4,2.8l-2.4,2.3l-1.3-0.8c-0.7-0.4-2.3-0.8-3.4-0.8c-5,0-7.8,4.9-5.5,9.3c0.9,1.7,0.9,1.7,0,2.4c-1,1-1.2,2.1-0.3,2.9c0.8,0.8,2,0.7,2.9-0.4c0.9-1,1.1-0.8,22.4,20.6l21.5,21.5l-29,29l-29,29l-21.5-21.5L68.3,85.6l21.3-21.3c11.7-11.7,21.3-21.6,21.3-22c0-0.9-0.9-1.8-1.8-1.8c-0.4,0-2.4,1.7-4.5,3.8l-3.8,3.8l-1.5-1.4c-2.2-2.1-4.1-2.9-6.8-2.9c-2.7,0-5.5,1.2-6.6,2.9c-2.4,3.6-1.9,7.9,1.2,11.2l1.9,2L77.4,71.4C66.1,82.7,65.9,82.9,64.8,82.2c-2.8-1.8-6.5-1.2-8.4,1.1c-1,1.2-1.2,1.9-1.2,4.1c0,1.7,0.3,3,0.7,3.6c0.7,1,0.6,1.2-1.8,3.7c-2.8,2.9-3.5,4.7-2.9,7.7c0.3,1.5,2.4,3.8,15.8,17.3c8.5,8.6,15.9,15.6,16.3,15.6c0.7,0,1.8-1.2,1.8-2.1c0-0.2-6.9-7.3-15.3-15.7C52.2,99.9,52.9,101,56.9,97l2.4-2.4l21.6,21.6l21.5,21.6L100,140c-3.1,3-4.7,3.1-7.3,0.5c-1.8-1.9-2.9-2.3-3.8-1.3c-1,1-0.6,2.1,1.7,4.1c3.8,3.6,7.7,3.4,11.9-0.6c2.4-2.3,2.4-2.3,3.8-1.6c3,1.6,7.2,0.5,8.6-2.1c0.9-1.5,0.8-5.5-0.1-6.8c-0.8-1.1-0.7-1.2,10.8-12.7l11.6-11.6l12.6,12.6c6.9,6.9,12.9,12.5,13.3,12.5c0.9,0,1.8-0.9,1.8-1.8c0-0.4-5.7-6.4-12.5-13.3l-12.6-12.6l3.2-3.2l3.2-3.2l38.5,38.5c21.2,21.2,38.7,38.5,39,38.5c1.2,0,2-0.6,2-1.8c0-1-6.9-8.1-38.3-39.5L149,96.2l11.5-11.5l11.5-11.5l2,0.9c4.4,1.9,8.9-0.9,8.9-5.6c0-0.8-0.3-2.2-0.7-3.1l-0.8-1.6l2.1-2.2c1.2-1.2,2.3-2.6,2.6-3.2c0.7-1.4,0.6-5.5-0.1-7c-0.4-0.7-9.5-10.1-20.4-20.9C143.5,8.8,144.1,9.3,139.5,10.6z M163.4,33.7c22.9,22.9,21.7,21.2,17.7,25.4l-2.3,2.4l-2.6-2.4c-2.6-2.5-3.4-2.8-4.3-1.8c-1.2,1.2-0.5,2.4,3.6,6.5c2.3,2.4,4.1,4.5,4.1,4.9c0,1.1-1.9,2.8-3.2,2.8c-0.9,0-6.1-4.9-25.5-24.3c-13.4-13.4-24.7-24.8-25-25.5c-0.8-1.5,0-3.2,1.8-3.8c1.2-0.5,1.8,0.1,19.1,17.4c11.7,11.7,18.2,17.8,18.8,17.8c1.1,0,2-0.8,2-1.8c0-0.4-7.2-7.9-16-16.7l-16-16l2.3-2.3c1.9-1.9,2.5-2.3,3.9-2.3C143.3,13.7,144.6,14.9,163.4,33.7z M95.9,48.7l1.9,1.8l-3.2,3.3l-3.2,3.3l-1.7-1.8c-1.4-1.5-1.8-2.2-1.8-3.7c0-1.5,0.3-2,1.6-3.2C91.8,46.3,93.4,46.4,95.9,48.7z M87.3,109.7c15.9,15.9,25,25.4,25,25.9c0,1.2-1.8,3-2.9,3c-0.6,0-9.2-8.2-26-25C57.2,87.4,57.3,87.5,59.2,85.5C61.1,83.4,60.9,83.3,87.3,109.7z"/><path fill="#000000" d="M115,33.9c-1.1,1.2-1,2.3,0.2,2.9c1.9,1.1,4.1-1.6,2.6-3.1C117,32.8,115.8,32.9,115,33.9z"/><path fill="#000000" d="M117.4,52.1c-0.4,0.4-0.5,7.7-0.4,26.1c0.1,23.7,0.2,25.5,1,26c0.6,0.4,1,0.4,1.6,0c0.7-0.5,0.8-2.3,0.9-26c0.1-26.4,0.1-26.7-1.8-26.7C118.3,51.5,117.7,51.8,117.4,52.1z"/><path fill="#000000" d="M106.4,63.2c-0.4,0.4-0.5,2.7-0.4,7c0.1,5.5,0.2,6.4,1,6.9c0.6,0.4,1,0.4,1.6,0c0.7-0.5,0.8-1.4,0.9-6.9c0.1-6.5-0.1-7.6-1.8-7.6C107.3,62.6,106.7,62.8,106.4,63.2z"/><path fill="#000000" d="M128.5,68.3c-0.4,0.4-0.5,4.2-0.4,12.7c0.1,11,0.2,12.2,1,12.6c0.6,0.4,1,0.4,1.6,0c0.7-0.5,0.8-1.7,0.9-12.6c0.1-12.5,0-13.4-1.8-13.4C129.4,67.6,128.8,67.9,128.5,68.3z"/><path fill="#000000" d="M169.1,137.3c-0.8,0.8-0.7,1.9,0.3,2.8c1,0.9,2,1,2.8,0.2s0.7-1.9-0.3-2.8C170.9,136.6,169.9,136.5,169.1,137.3z"/><path fill="#000000" d="M177,145.2c-0.3,0.3-0.6,0.9-0.6,1.3c0,1.2,47.9,48.7,49.9,49.6c2.4,1,4.4,0.9,6.8-0.3c2.4-1.2,3.6-2.8,4.2-5.3c0.6-2.7-0.2-5.6-2.2-7.9c-1.8-2.1-3.1-2.7-4.1-1.9c-1.2,0.9-0.8,2.2,1.2,4.3c1.4,1.5,1.8,2.4,1.8,3.5c0,2-1.1,3.5-3,4.4c-1.3,0.6-1.8,0.6-3,0c-0.9-0.4-11.6-10.7-25.3-24.4c-13-13.1-24.1-23.8-24.4-23.8C177.8,144.6,177.3,144.8,177,145.2z"/><path fill="#000000" d="M39,199.1c-2.8,1.5-4.1,4.1-4.1,8v2.9h-3.5c-4.1,0-5.9,0.6-7.9,2.8c-1.9,2-2.4,3.5-2.4,6.6v2.5l-5.1,0.1c-4.3,0.1-5.3,0.3-5.7,0.9c-0.4,0.6-0.4,1.1,0,1.6c0.5,0.8,4.2,0.8,67,0.8c62.8,0,66.5,0,67-0.8c0.4-0.6,0.4-1.1,0-1.6c-0.4-0.7-1.3-0.9-4.7-1l-4.2-0.1v-2.5c0-3.1-0.8-5-2.8-7c-2.1-2-3.5-2.4-7.6-2.4h-3.4v-2.9c0-4-1.3-6.5-4.1-8c-3.7-2-8.6-0.8-7.1,1.6c0.4,0.6,1.3,0.9,3.2,1c3.5,0.3,4.4,1.3,4.4,5.3v3l-24.2,0.1c-22.5,0.1-24.3,0.2-24.8,0.9c-0.4,0.6-0.4,1.1,0,1.6c0.5,0.8,2.6,0.8,30.6,1.1l30.1,0.2l1.1,1.3c0.9,1.1,1.1,1.8,1.1,4.1v2.7H78.2H24.7v-2.7c0-2.3,0.2-3,1.1-4.1L27,214l10.7-0.2c9.5-0.2,10.7-0.3,11.2-1.1c0.4-0.6,0.4-1,0-1.6c-0.4-0.6-1.3-0.8-5.4-0.9l-4.9-0.1v-2.9c0-2.2,0.2-3.2,0.9-4l0.9-1.1l30.8-0.2c28.6-0.2,30.8-0.3,31.3-1.1c0.4-0.6,0.4-1,0-1.6c-0.5-0.7-2.5-0.8-30.9-0.9L41,198.1L39,199.1z"/><path fill="#000000" d="M57.1,210.6c-1.4,1.4-0.1,3.3,2,3c1.6-0.2,2.4-1.4,1.8-2.6C60.3,210.1,57.9,209.8,57.1,210.6z"/><path fill="#000000" d="M152.5,222.6c-0.7,0.7-0.7,2,0.1,2.6c0.5,0.4,11,0.5,39,0.4c36-0.1,38.4-0.2,38.9-0.9c0.4-0.6,0.4-1.1,0-1.6c-0.5-0.8-2.9-0.8-39-1C162,222,152.9,222.2,152.5,222.6z"/><path fill="#000000" d="M238.7,222.6c-0.7,0.7-0.7,2,0.1,2.6c1.1,0.9,6.3,0.5,6.9-0.6c0.4-0.6,0.4-1,0-1.6C245.1,222.1,239.6,221.7,238.7,222.6z"/><path fill="#000000" d="M53,232.7c-0.7,0.7-0.7,2,0.1,2.6c0.4,0.4,7.2,0.5,24.5,0.4c22.2-0.1,23.9-0.2,24.4-1c0.4-0.6,0.4-1,0-1.6c-0.5-0.7-2.2-0.8-24.5-0.9C59.2,232.2,53.4,232.3,53,232.7z"/><path fill="#000000" d="M121.6,232.7c-0.7,0.7-0.7,2,0.1,2.6c0.4,0.4,4.7,0.5,14.8,0.4c13-0.1,14.2-0.2,14.7-1c0.4-0.6,0.4-1,0-1.6c-0.5-0.7-1.8-0.8-14.8-0.9C125.7,232.2,122.1,232.3,121.6,232.7z"/><path fill="#000000" d="M181.9,239.9c-0.6,0.5-1.5,1.2-1.8,1.6c-0.6,0.8-2.1,0.8-18.6,1c-16.5,0.1-18,0.1-18.4,0.9c-0.4,0.6-0.4,1.1,0,1.6c0.5,0.8,2,0.8,19.5,1c13.1,0,19.2,0,19.6-0.4c0.3-0.3,0.6-0.9,0.7-1.5c0.2-1.4,2.4-1.4,2.6,0c0.3,1.8,1,2,8.2,1.9c5.9-0.1,6.9-0.2,7.3-1c0.4-0.6,0.4-1,0-1.6c-0.4-0.6-1.4-0.8-6.2-0.9c-4.8-0.1-5.8-0.2-6.4-0.9c-1.2-1.4-2.9-2.4-4.1-2.4C183.6,239.1,182.5,239.5,181.9,239.9z"/><path fill="#000000" d="M131.3,242.9c-1.4,1.4-0.1,3.3,2,3c1.6-0.2,2.4-1.4,1.8-2.6C134.5,242.4,132.1,242,131.3,242.9z"/></g></g></g>
</svg>