<svg width="32" height="33" viewBox="0 0 32 33" fill="none" xmlns="http://www.w3.org/2000/svg">
<path d="M26 17.086V14.5H24V17.5C24.0001 17.7652 24.1054 18.0195 24.293 18.207L27 20.914V22.5H5V20.914L7.707 18.207C7.89455 18.0195 7.99994 17.7652 8 17.5V13.5C7.99739 12.0949 8.36561 10.7139 9.06746 9.49667C9.76932 8.27939 10.78 7.26887 11.9973 6.56716C13.2147 5.86545 14.5957 5.4974 16.0008 5.50018C17.4059 5.50296 18.7854 5.87648 20 6.583V4.346C19.0481 3.92452 18.0356 3.65588 17 3.55V1.5H15V3.55C12.5346 3.80093 10.2498 4.95712 8.58737 6.79498C6.92498 8.63285 6.0031 11.0218 6 13.5V17.086L3.293 19.793C3.10545 19.9805 3.00006 20.2348 3 20.5V23.5C3 23.7652 3.10536 24.0196 3.29289 24.2071C3.48043 24.3946 3.73478 24.5 4 24.5H11V25.5C11 26.8261 11.5268 28.0979 12.4645 29.0355C13.4021 29.9732 14.6739 30.5 16 30.5C17.3261 30.5 18.5979 29.9732 19.5355 29.0355C20.4732 28.0979 21 26.8261 21 25.5V24.5H28C28.2652 24.5 28.5196 24.3946 28.7071 24.2071C28.8946 24.0196 29 23.7652 29 23.5V20.5C28.9999 20.2348 28.8946 19.9805 28.707 19.793L26 17.086ZM19 25.5C19 26.2956 18.6839 27.0587 18.1213 27.6213C17.5587 28.1839 16.7956 28.5 16 28.5C15.2044 28.5 14.4413 28.1839 13.8787 27.6213C13.3161 27.0587 13 26.2956 13 25.5V24.5H19V25.5Z" fill="#3F3F3F"/>
<path d="M26 12.5C28.2091 12.5 30 10.7091 30 8.5C30 6.29086 28.2091 4.5 26 4.5C23.7909 4.5 22 6.29086 22 8.5C22 10.7091 23.7909 12.5 26 12.5Z" fill="#D87631"/>
</svg>
