<?xml version="1.0" encoding="utf-8"?>
<!-- Svg Vector Icons : http://www.onlinewebfonts.com/icon -->
<!DOCTYPE svg PUBLIC "-//W3C//DTD SVG 1.1//EN" "http://www.w3.org/Graphics/SVG/1.1/DTD/svg11.dtd">
<svg version="1.1" xmlns="http://www.w3.org/2000/svg" xmlns:xlink="http://www.w3.org/1999/xlink" x="0px" y="0px" viewBox="0 0 256 256" enable-background="new 0 0 256 256" xml:space="preserve">
<metadata> Svg Vector Icons : http://www.onlinewebfonts.com/icon </metadata>
<g><g><g><path fill="#000000" d="M125.8,10.7c-3.9,1.4-8.6,6.1-8.6,8.6c0,0.9-0.7,1-13.5,1H90.1v4.6c0,8.5-2.6,21.1-5.2,25l-0.8,1.2h45c35.8,0,44.9-0.2,44.7-0.7c-0.2-0.3-1-2.4-1.9-4.5c-1.8-4.3-3-10.9-3.6-19.9l-0.4-5.8h-13h-13.1l-1-2.4c-0.5-1.4-2-3.4-3.4-4.6C133.8,10.1,129.9,9.2,125.8,10.7z M133.8,17.7c6.7,4.1,3.6,15-4.2,15c-5.8,0-9.6-4.9-8.1-10.4C123,16.8,128.9,14.6,133.8,17.7z"/><path fill="#000000" d="M65,32.8c-6.4,1.5-13.9,7.2-16.9,12.9l-1.6,3v92v92l1.2,2.2c1.6,3,5,6,9.1,7.9c6.9,3.2,5.1,3.2,72.1,3.2c35.7,0,62.4-0.2,63.9-0.5c7-1.4,12.9-5.1,15.5-10l1.2-2.2V141V48.7l-1.6-3.4c-2-4.4-6.6-8.8-11.5-11.2c-3.6-1.7-3.8-1.7-12.6-1.9l-8.9-0.2l0.3,2.9c0.2,1.6,0.7,4.1,1.2,5.7l0.8,2.8l6.4,0.2c7.1,0.2,8.5,0.8,11.5,4.9c3.4,4.7,3.2-0.4,3.2,91.3c0,90.9,0.2,86.6-3,90.7c-0.8,1-2.4,2.3-3.5,2.9c-2.1,1.1-3.3,1.1-63,1.1H68l-2.9-1.5c-3.2-1.7-6.1-5-7-8.1c-0.3-1.4-0.5-29.7-0.5-85.5c0-83,0-83.5,1.1-86.5c1.2-3.4,5-7.6,7.8-8.8c1.2-0.5,3.8-0.8,7.7-0.8h5.8l1.2-1.7c1.3-1.7,3.3-7,3.3-8.7c0-0.9-0.6-1-8.8-0.9C71,32.3,66.1,32.5,65,32.8z"/><path fill="#000000" d="M123.1,103.5v4.8l-3.1,1c-5.7,1.8-10.1,5.3-12.5,9.7c-1.2,2.4-1.5,3.4-1.5,7.6c0,4.1,0.2,5.3,1.2,7.2c2.5,4.8,8,8.6,16.7,11.7c5.3,1.8,7.7,3.1,9.5,5.1c3.4,3.6,1.9,8.2-3.1,10c-4.7,1.7-13.8,0.4-21.4-3.1c-0.7-0.3-1.1,0.6-2.3,5c-0.8,3-1.5,5.6-1.5,6c0,1.2,11.2,4.4,15.5,4.4h1.8v5.1v5.1h4.9h4.9v-5.4v-5.3l3.6-1c6.6-1.8,12-6.5,14.1-12.3c1.1-3.1,1.1-8.8,0-12.2c-1.8-5.6-6.2-9-16.7-13.2c-7.6-3.1-10.3-4.7-11.5-7c-1.2-2.2-0.3-5,2.1-6.4c3.6-2.2,11.9-1.8,18.3,0.8l3.1,1.2l1.4-5.6c0.8-3.1,1.4-5.7,1.4-5.8c0-0.5-7.7-2.6-11.1-3l-3.8-0.4l-0.2-4.5l-0.2-4.4H128h-4.9V103.5z"/></g></g></g>
</svg>