<svg xmlns="http://www.w3.org/2000/svg" shape-rendering="geometricPrecision" text-rendering="geometricPrecision" image-rendering="optimizeQuality" fill-rule="evenodd" clip-rule="evenodd" viewBox="0 0 512 444.697"><path d="M310.307 404.526c9.984 1.178 17.798 9.727 17.798 20.015v.001c0 11.085-9.07 20.155-20.155 20.155H20.155C9.07 444.697 0 435.627 0 424.542v-.001c0-10.47 8.093-19.142 18.331-20.071v-.083c0-18.464 7.55-35.246 19.711-47.407 12.162-12.161 28.945-19.711 47.409-19.711h157.736c18.464 0 35.246 7.55 47.407 19.712 12.161 12.161 19.713 28.944 19.713 47.406v.139zm-6.949-234.753c3.325-4.435 9.326-6.354 14.749-4.293l185.671 70.522c6.559 2.49 9.887 9.896 7.395 16.454l-12.326 32.45c-2.49 6.558-9.895 9.888-16.454 7.396L296.722 221.78c-5.45-2.069-8.667-7.533-8.171-13.084l-29.186-14.105-17.514 46.111a9.264 9.264 0 01-.768 1.571c4.307 2.217 7.579 5.812 9.471 10.017 2.178 4.851 2.521 10.534.492 15.871l-8.568 22.562c-2.041 5.37-6.091 9.42-10.97 11.613-4.85 2.178-10.534 2.519-15.872.493L84.868 253.16c-5.372-2.04-9.421-6.09-11.614-10.969-2.178-4.851-2.522-10.534-.493-15.873l8.57-22.561c2.041-5.372 6.091-9.42 10.97-11.614 4.35-1.953 9.373-2.427 14.209-1.044.099-.53.244-1.057.441-1.578l17.352-45.685-4.26-1.604c-22.735-8.55-9.698-42.879 13.04-34.335l4.262 1.602 17.407-45.829c.204-.54.454-1.049.741-1.527-9.583-4.626-14.295-15.997-10.45-26.127l8.569-22.56c4.07-10.702 16.105-16.181 26.84-12.108l130.771 49.67c10.665 4.053 16.149 16.1 12.124 26.789l-8.589 22.613c-3.79 9.978-14.531 15.409-24.656 12.799a9.438 9.438 0 01-.45 1.632l-17.527 46.145 31.233 8.777zm-52.366 20.771l12.177-32.064h.002l17.811-46.893-117.56-44.652-47.801 125.85 117.56 44.653 17.811-46.894zM162.283 16.72l-8.57 22.56c-2.257 5.941.759 12.651 6.701 14.908l130.768 49.668c5.941 2.257 12.651-.759 14.906-6.7l8.57-22.56c2.256-5.942-.758-12.651-6.701-14.908L177.19 10.02c-5.943-2.259-12.651.757-14.907 6.7zM81.432 229.583l8.569-22.562c2.257-5.941 8.966-8.957 14.908-6.7l130.767 49.668c5.942 2.258 8.957 8.968 6.7 14.908l-8.568 22.561c-2.257 5.942-8.965 8.957-14.908 6.701L88.132 244.49c-5.943-2.258-8.957-8.964-6.7-14.907zM28.121 404.461h272.395v-.074c0-15.759-6.453-30.092-16.844-40.483-10.392-10.393-24.725-16.845-40.485-16.845H85.451c-15.761 0-30.094 6.452-40.487 16.843-10.391 10.392-16.843 24.725-16.843 40.485v.074z"/></svg>